<mxfile host="app.diagrams.net" agent="Mozilla/5.0 (Windows NT 10.0; Win64; x64) AppleWebKit/537.36 (KHTML, like Gecko) Chrome/136.0.0.0 Safari/537.36 Edg/136.0.0.0" version="27.0.2">
  <diagram name="페이지-1" id="eYFjEQ_SGDMebnN7X5Bi">
    <mxGraphModel dx="1361" dy="731" grid="1" gridSize="10" guides="1" tooltips="1" connect="1" arrows="1" fold="1" page="1" pageScale="1" pageWidth="827" pageHeight="1169" math="0" shadow="0">
      <root>
        <mxCell id="0" />
        <mxCell id="1" parent="0" />
        <mxCell id="2xSnnoKByyNW5rkiuB8Y-1" value="실행 파일 흐름도" style="text;html=1;align=center;verticalAlign=middle;whiteSpace=wrap;rounded=0;" parent="1" vertex="1">
          <mxGeometry x="20" y="10" width="110" height="30" as="geometry" />
        </mxCell>
        <mxCell id="2xSnnoKByyNW5rkiuB8Y-2" value="slips.py" style="rounded=0;html=1;whiteSpace=wrap;" parent="1" vertex="1">
          <mxGeometry x="15" y="40" width="65" height="20" as="geometry" />
        </mxCell>
        <mxCell id="2xSnnoKByyNW5rkiuB8Y-4" value="slips/main.py" style="rounded=0;html=1;whiteSpace=wrap;fontSize=9;" parent="1" vertex="1">
          <mxGeometry x="15" y="69" width="65" height="20" as="geometry" />
        </mxCell>
        <mxCell id="2xSnnoKByyNW5rkiuB8Y-7" value="Main 인스턴스 생성 : slips" style="rounded=0;html=1;whiteSpace=wrap;fontSize=9;" parent="1" vertex="1">
          <mxGeometry x="90" y="40" width="120" height="20" as="geometry" />
        </mxCell>
        <mxCell id="2xSnnoKByyNW5rkiuB8Y-8" value="Main Class init ~ Checker / RedisManager / ConfigParser / MetadataManager / UIManager / ProcessManager / ProfilersManager&lt;div&gt;: self.(checker / redis_man / conf / metadata_man / ui_man / proc_man / profilers_manager)&lt;/div&gt;" style="rounded=0;html=1;whiteSpace=wrap;fontSize=9;" parent="1" vertex="1">
          <mxGeometry x="90" y="69" width="520" height="21" as="geometry" />
        </mxCell>
        <mxCell id="2xSnnoKByyNW5rkiuB8Y-9" value="VERSION 파일 텍스트 파싱 -&amp;gt; 1.1.9" style="rounded=0;html=1;whiteSpace=wrap;fontSize=9;" parent="1" vertex="1">
          <mxGeometry x="90" y="100" width="520" height="21" as="geometry" />
        </mxCell>
        <mxCell id="mVT9n4huYzvR_0wZNbzy-1" value="&lt;div&gt;1. self.print_version() -&amp;gt;&amp;nbsp;&lt;span style=&quot;background-color: transparent; color: light-dark(rgb(0, 0, 0), rgb(255, 255, 255));&quot;&gt;Slips Version: 1.1.9 프린트&lt;/span&gt;&lt;/div&gt;&lt;div&gt;2. self.setup_print_levels() : slips.ymal의 verbose, debug 숫자 arg에 가져오기&lt;/div&gt;&lt;div&gt;3. self.get_slips_error_file() -&amp;gt; output/errors.log 라는 경로 가져오기 ~ stderr&lt;/div&gt;&lt;div&gt;4. self.get_slips_logfile() -&amp;gt; output/slips.log 라는 경로 가져오기 ~ slips_logfile&lt;/div&gt;" style="rounded=0;html=1;whiteSpace=wrap;fontSize=9;" parent="1" vertex="1">
          <mxGeometry x="90" y="130" width="520" height="50" as="geometry" />
        </mxCell>
        <mxCell id="mVT9n4huYzvR_0wZNbzy-2" value="slips.start()" style="rounded=0;html=1;whiteSpace=wrap;fontSize=9;" parent="1" vertex="1">
          <mxGeometry x="15" y="130" width="65" height="20" as="geometry" />
        </mxCell>
        <mxCell id="mVT9n4huYzvR_0wZNbzy-3" value="&lt;font size=&quot;1&quot;&gt;self.logger&amp;nbsp;: proc_man.start_output_process -&amp;gt; Output 인스턴스 생성&lt;/font&gt;" style="rounded=0;whiteSpace=wrap;html=1;" parent="1" vertex="1">
          <mxGeometry x="90" y="190" width="520" height="20" as="geometry" />
        </mxCell>
        <mxCell id="mVT9n4huYzvR_0wZNbzy-4" value="&lt;font size=&quot;1&quot;&gt;output class init ~ 결과 관련 설정값, path 설정&lt;/font&gt;" style="rounded=0;whiteSpace=wrap;html=1;" parent="1" vertex="1">
          <mxGeometry x="150" y="220" width="460" height="20" as="geometry" />
        </mxCell>
        <mxCell id="mVT9n4huYzvR_0wZNbzy-5" value="&lt;font size=&quot;1&quot;&gt;self.printer:&amp;nbsp;Printer(self.logger, self.name)&lt;/font&gt;&lt;div&gt;&lt;font size=&quot;1&quot;&gt;self.logger를 옵저버로 등록(&lt;/font&gt;&lt;span style=&quot;background-color: transparent;&quot;&gt;&lt;font size=&quot;1&quot;&gt;IObservable 인스턴스)&lt;/font&gt;&lt;/span&gt;&lt;/div&gt;" style="rounded=0;whiteSpace=wrap;html=1;" parent="1" vertex="1">
          <mxGeometry x="90" y="250" width="520" height="40" as="geometry" />
        </mxCell>
        <mxCell id="qNVQB7jdVYGB9Z_iVufk-1" value="&lt;font size=&quot;1&quot;&gt;DBManager(self.logger, self.args.output, self.redis_port, start_redis_server=start_redis_server)&lt;/font&gt;&lt;div&gt;&lt;font size=&quot;1&quot;&gt;rdb ~ RedisDB 인스턴스 생성 / sqlite ~ 조건 부 SQLiteDB 생성&lt;/font&gt;&lt;/div&gt;" style="rounded=0;whiteSpace=wrap;html=1;" vertex="1" parent="1">
          <mxGeometry x="90" y="300" width="520" height="40" as="geometry" />
        </mxCell>
      </root>
    </mxGraphModel>
  </diagram>
</mxfile>
